<svg xmlns="http://www.w3.org/2000/svg" viewBox="0 0 66.458 66.458" width="66" height="66">
  <path d="M48.2891 0C58.3119 0.00018134 66.458 8.14603 66.458 18.1689V48.2891C66.4578 58.3109 58.3118 66.4578 48.2891 66.458H18.1689C8.14697 66.458 0.000183463 58.311 0 48.2891V18.1689C0 8.14592 8.14686 0 18.1689 0H48.2891Z" fill="#043AD1"/>
  <path d="M20.598 21.0227C27.5764 14.0764 38.8905 14.0764 45.8688 21.0227C48.3008 23.4434 50.7689 25.8333 53.1656 28.2886L47.873 32.609L40.5994 25.3688C36.5313 21.3195 29.9356 21.3195 25.8675 25.3688C23.3474 27.8773 20.7429 30.3251 18.3001 32.9082L13.291 28.2991C15.689 25.8385 18.1627 23.4468 20.598 21.0227Z" fill="#fff"/>
  <path d="M20.598 38.759C27.5764 31.8128 38.8905 31.8128 45.8688 38.759C48.3008 41.1797 50.7689 43.5696 53.1656 46.0249L47.873 50.3453L40.5994 43.1052C36.5313 39.0558 29.9356 39.0558 25.8675 43.1052C23.3474 45.6137 20.7429 48.0615 18.3001 50.6445L13.291 46.0354C15.689 43.5748 18.1627 41.1831 20.598 38.759Z" fill="#fff"/>
</svg>
